<svg width="304" height="58" viewBox="0 0 304 58" fill="none" xmlns="http://www.w3.org/2000/svg">
<path d="M25.6688 36.5828V32.3046H27.8079V25.8874H29.947V21.6093H32.0861V15.1921H27.8079V13.053H23.5298V15.1921H19.2516V17.3312H17.1126V19.4702H21.3907V17.3312H25.6688V23.7484H23.5298V28.0265H21.3907V34.4437H19.2516V43H25.6688V40.8609H29.947V38.7219H23.5298V36.5828H25.6688ZM12.8344 25.8874H10.6954V23.7484H14.9735V21.6093H17.1126V19.4702H14.9735V17.3312H17.1126V13.053H12.8344V15.1921H6.41721V17.3312H8.55628V23.7484H6.41721V30.1656H4.27814V36.5828H2.13907V40.8609H0V43H6.41721V38.7219H8.55628V32.3046H10.6954V28.0265H12.8344V25.8874ZM47.0333 6.63581H53.4505V4.49674H55.5896V0.218599H51.3114V2.35767H49.1723V4.49674H47.0333V6.63581ZM51.3114 13.053H47.0333V15.1921H40.6161V17.3312H42.7551V23.7484H40.6161V28.0265H38.477V34.4437H36.3379V43H42.7551V40.8609H44.8942V38.7219H40.6161V36.5828H42.7551V30.1656H44.8942V25.8874H47.0333V19.4702H49.1723V15.1921H51.3114V13.053ZM76.997 36.5828V32.3046H79.136V25.8874H81.2751V21.6093H83.4142V15.1921H79.136V13.053H74.8579V15.1921H70.5798V17.3312H68.4407V19.4702H72.7188V17.3312H76.997V23.7484H74.8579V28.0265H72.7188V34.4437H70.5798V43H76.997V40.8609H81.2751V38.7219H74.8579V36.5828H76.997ZM64.1625 25.8874H62.0235V23.7484H66.3016V21.6093H68.4407V19.4702H66.3016V17.3312H68.4407V13.053H64.1625V15.1921H57.7453V17.3312H59.8844V23.7484H57.7453V30.1656H55.6063V36.5828H53.4672V40.8609H51.3281V43H57.7453V38.7219H59.8844V32.3046H62.0235V28.0265H64.1625V25.8874ZM109.057 23.7484H111.196V15.1921H106.918V13.053H100.5V15.1921H96.2223V17.3312H94.0833V19.4702H91.9442V21.6093H89.8051V25.8874H87.6661V38.7219H89.8051V40.8609H91.9442V43H102.64V40.8609H104.779V38.7219H96.2223V36.5828H94.0833V30.1656H91.9442V28.0265H102.64V25.8874H94.0833V23.7484H96.2223V19.4702H98.3614V17.3312H100.5V15.1921H104.779V17.3312H106.918V21.6093H104.779V23.7484H102.64V25.8874H109.057V23.7484ZM106.918 38.7219V36.5828H104.779V38.7219H106.918ZM121.877 40.8609H124.016V38.7219H121.877V13.053H117.599V15.1921H115.46V19.4702H117.599V43H121.877V40.8609ZM136.85 19.4702V21.6093H134.711V25.8874H132.572V30.1656H130.433V32.3046H128.294V34.4437H126.155V36.5828H124.016V38.7219H128.294V36.5828H130.433V34.4437H132.572V30.1656H134.711V28.0265H136.85V23.7484H138.989V15.1921H136.85V13.053H134.711V15.1921H132.572V19.4702H136.85ZM158.255 40.8609H160.394V38.7219H162.534V36.5828H164.673V32.3046H166.812V17.3312H164.673V15.1921H160.394V13.053H153.977V15.1921H149.699V17.3312H147.56V19.4702H145.421V21.6093H143.282V23.7484H141.143V38.7219H143.282V40.8609H145.421V43H158.255V40.8609ZM147.56 40.8609V38.7219H145.421V30.1656H147.56V23.7484H149.699V19.4702H151.838V17.3312H156.116V15.1921H158.255V17.3312H160.394V19.4702H162.534V28.0265H160.394V34.4437H158.255V36.5828H156.116V38.7219H153.977V40.8609H147.56ZM190.356 0.218599H181.799V2.35767H183.939V6.63581H181.799V13.053H179.66V17.3312H177.521V23.7484H175.382V28.0265H173.243V34.4437H171.104V43H177.521V40.8609H179.66V38.7219H175.382V36.5828H177.521V30.1656H179.66V25.8874H181.799V19.4702H183.939V15.1921H186.078V8.77488H188.217V4.49674H190.356V0.218599ZM196.79 40.8609H201.068V38.7219H194.651V34.4437H196.79V28.0265H198.929V21.6093H201.068V17.3312H209.624V15.1921H203.207V10.9139H205.346V6.63581H203.207V8.77488H201.068V10.9139H198.929V13.053H194.651V15.1921H192.512V17.3312H196.79V19.4702H194.651V23.7484H192.512V30.1656H190.372V36.5828H188.233V40.8609H190.372V43H196.79V40.8609ZM205.313 36.5828V43H211.73V36.5828H205.313ZM237.396 23.7484V21.6093H239.535V19.4702H241.674V17.3312H243.813V19.4702H248.092V13.053H243.813V15.1921H239.535V19.4702H237.396V21.6093H235.257V23.7484H237.396ZM226.701 36.5828H228.84V34.4437H233.118V40.8609H235.257V43H243.813V40.8609H245.952V38.7219H239.535V34.4437H237.396V30.1656H235.257V23.7484H233.118V15.1921H230.979V13.053H226.701V15.1921H224.562V17.3312H226.701V21.6093H228.84V28.0265H230.979V30.1656H228.84V34.4437H226.701V36.5828H224.562V38.7219H226.701V36.5828ZM233.118 30.1656V32.3046H230.979V30.1656H233.118ZM222.423 40.8609H224.562V38.7219H220.284V36.5828H218.145V38.7219H216.005V43H222.423V40.8609ZM254.514 53.6954V51.5563H256.653V49.4172H258.792V47.2781H260.931V45.1391H263.07V43H265.209V40.8609H267.348V36.5828H269.487V34.4437H271.626V30.1656H273.765V25.8874H275.904V19.4702H278.043V15.1921H275.904V13.053H271.626V17.3312H269.487V19.4702H273.765V23.7484H271.626V28.0265H269.487V32.3046H267.348V36.5828H265.209V38.7219H263.07V34.4437H260.931V17.3312H258.792V13.053H256.653V15.1921H250.235V17.3312H254.514V30.1656H256.653V47.2781H254.514V49.4172H252.374V51.5563H250.235V53.6954H254.514ZM245.957 55.8344H250.235V53.6954H245.957V51.5563H243.818V49.4172H239.54V55.8344H241.679V57.9735H245.957V55.8344ZM278.067 40.8609H286.623V43H297.319V40.8609H299.458V36.5828H301.597V34.4437H299.458V36.5828H297.319V38.7219H288.762V36.5828H284.484V38.7219H282.345V36.5828H284.484V34.4437H286.623V32.3046H288.762V30.1656H290.902V28.0265H293.041V25.8874H295.18V23.7484H297.319V21.6093H299.458V19.4702H301.597V17.3312H303.736V15.1921H284.484V19.4702H282.345V21.6093H284.484V19.4702H297.319V17.3312H299.458V19.4702H297.319V21.6093H295.18V23.7484H293.041V25.8874H290.902V28.0265H288.762V30.1656H286.623V32.3046H284.484V34.4437H282.345V36.5828H280.206V38.7219H278.067V40.8609H275.928V43H278.067V40.8609Z" fill="#30363F"/>
</svg>
